<svg xmlns="http://www.w3.org/2000/svg" width="880" height="1429" fill="none" xmlns:v="https://vecta.io/nano"><style><![CDATA[.B{fill:#797c99}.C{fill:#495375}.D{fill:#eba58e}.E{fill:#f2c9ad}.F{fill:#21255c}.G{fill:#468097}.H{fill:#6a3649}]]></style><path d="M880 1428H0V400C0 179.086 179.086 0 400 0h80c220.914 0 400 179.086 400 400v1028z" fill="#121212"/><path d="M413.521 909.618c-26.41 18.142-53.457 36.284-84.323 44.56-15.91 4.138-33.729 5.411-47.412-3.501-16.228-10.504-21.319-33.102-17.182-51.881s15.591-35.329 26.728-51.244l106.916-49.97 15.273 112.036z" class="D"/><path d="M380.747 816.042c-61.413 178.24-100.87 464.058-100.87 464.058l105.324 5.41 75.732-480.29-80.186 10.822z" class="G"/><path d="M417.658 780.076c-46.457 164.553-95.46 409.634-95.46 409.634l4.773 24.51-4.773 27.69h102.778l35.639-436.053-42.957-25.781z" fill="#fff"/><path d="M417.658 780.076c-18.138 63.975-36.593 140.364-52.503 209.431 17.819-6.683 35.002-14.959 51.23-24.826l-23.547 202.109c-.954 6.69-6.682 12.1-13.364 12.1-4.455 0-8.91 2.23-11.455 6.04l-5.41 8.6c-1.591 2.23-3.818 4.14-6.364 5.09l-20.683 7.96h34.048c8.909 0 16.864 6.36 18.455 15.28l3.5 19.41h33.73l35.638-436.05-43.275-25.144z" fill="#e4e4e0"/><path fill-rule="evenodd" d="M684.653 1422.68c-20.888 3.77-42.403 5.74-64.377 5.74H308.515l22.274-186.83v.32h336.974l8.592 66.84c2.863 21.32 4.773 42.33 5.727 63.65l2.571 50.28z" fill="#454f6b"/><path d="M676.036 1302.06l-7.955-60.47H391.565l-24.183 77.34 308.654-16.87z" fill="#422c4f"/><path d="M461.251 513.353l14.319 39.786 96.733-28.964-37.229-107.899-73.823 97.077z" class="E"/><path d="M535.074 416.276l-73.823 97.077 9.864 27.691c53.14-14.96 64.913-106.944 63.959-124.768z" fill="#472948"/><path d="M293.242 283.551c-1.591 17.188-1.591 35.011 3.182 51.562 4.773 16.869 14.319 32.465 28.32 42.332-1.91-30.873-.319-63.02 4.454-93.576-10.5 3.502-25.456 2.228-35.956-.318z" class="H"/><path d="M542.392 313.47c-8.591-33.102-28.638-63.657-57.594-82.118-28.956-18.142-66.822-23.234-98.324-9.866-33.411 14.322-56.958 47.106-65.231 82.754-8.591 35.329-3.5 72.887 7.001 107.898 10.182 33.42 27.047 66.204 54.412 87.847s67.458 29.919 98.324 13.05c16.864-9.231 29.592-24.827 38.184-42.014 23.546-45.833 36.274-107.262 23.228-157.551z" class="E"/><path d="M496.572 198.569c-.637.955-.955 1.91-1.591 2.865.954-.637 1.272-1.592 1.591-2.865z" fill="#fff"/><path d="M477.161 351.664c-6.045-10.503-17.501-17.505-29.274-18.46-12.092-.637-24.183 5.092-31.502 14.641 18.774-2.228 42.003.318 60.776 3.819zm-118.052 1.91c-1.909-2.546-4.137-5.411-6.682-7.639s-5.728-3.819-9.228-3.819c-5.728 0-10.819 4.456-13.046 9.866s-2.546 11.14-2.546 16.87c8.91-6.684 21.001-13.05 31.502-15.278z" class="H"/><path d="M463.797 384.129c.636-3.183-.636-7.639-3.5-11.14s-7.319-6.047-12.41-6.365-9.864 1.909-13.046 5.092-4.773 7.321-4.455 10.822c4.137-5.411 10.819-8.912 17.183-8.594s12.728 4.456 16.228 10.185zm-100.87 8.912c-.954-3.183-3.5-6.684-6.364-9.23s-6.682-3.819-9.546-2.546c-2.863.955-4.773 4.137-5.409 7.957s.318 7.957 1.909 10.821c0-5.729 2.546-10.821 6.046-12.094 3.818-1.592 9.228.636 13.364 5.092z" fill="#472948"/><path d="M418.931 423.597l-30.547 2.864c3.182 5.729 8.591 10.185 14.955 9.549 6.682-.319 13.046-6.048 15.592-12.413z" class="D"/><path d="M479.389 435.692c-26.411 14.004-55.049 24.189-84.323 29.918 11.773 9.867 25.774 19.097 41.048 19.734 12.409.637 24.819-4.774 33.092-13.686 8.274-9.231 12.092-23.872 10.183-35.966z" fill="#fff"/><path d="M477.798 484.707c-8.91 6.048-18.456 10.822-28.956 14.005 3.818 1.273 8.273 3.501 12.409 3.501s8.274-1.591 11.456-4.138c3.5-3.182 5.727-9.23 5.091-13.368zm5.409-60.792c16.344 0 29.593-5.985 29.593-13.368s-13.249-13.368-29.593-13.368-29.592 5.985-29.592 13.368 13.249 13.368 29.592 13.368zm-113.915-8.594c1.909 4.774-2.228 11.14-9.228 14.323-7.319 3.183-14.637 1.91-16.865-2.546-2.227-5.093 1.909-11.458 9.228-14.641 7-3.183 14.637-1.91 16.865 2.864zm86.868-113.309c10.501 34.693 42.639 48.061 61.731 47.742l28.32-16.55c-.955-6.684-2.228-13.368-3.819-19.734-3.818-14.959-10.182-29.601-18.455-42.65-67.459 6.365-134.599 15.914-201.421 28.645-.318 1.592-.955 3.183-1.273 4.775-1.909 8.275-3.182 16.869-3.818 25.462 47.73 1.274 95.46-8.275 138.735-27.69z" class="D"/><path d="M543.029 399.089c-15.91-10.822-25.774-29.919-25.138-49.335-25.774-7.32-49.003-28.645-54.73-54.745-43.912 15.596-90.687 21.326-137.463 21.962-14.955.318-30.229-.318-43.911-6.047-14.001-5.411-26.093-16.869-29.275-31.192-5.091-22.28 12.092-43.605 30.229-57.292 57.913-43.923 140.645-52.517 206.194-21.325-2.864-11.458-3.182-21.325-6.046-32.465 6.364 2.228 12.092 7.003 14.319 13.687 2.228 6.365 1.591 14.004-1.909 19.733 2.545-6.365 7.955-11.458 14.319-13.686 6.364-2.546 13.682-1.91 19.728 1.273l-21.319 17.187c13.364-4.774 29.911.637 41.048 9.549 11.137 8.594 18.455 21.643 22.592 35.33s4.773 28.009 4.773 42.332a416.58 416.58 0 0 1-2.864 48.697c-1.273 10.504-2.864 21.007-6.682 30.874s-10.501 18.779-19.728 24.19l-4.137 1.273z" class="H"/><path d="M263.649 277.822c3.182-16.551 13.683-31.192 26.729-42.014s28.638-17.824 44.548-23.871c25.456-9.549 52.185-16.233 79.232-15.914s54.73 7.957 76.05 24.826c21.955-8.594 48.684 0 65.549 16.551 7.955 7.957 14.001 17.187 18.774 27.372-.637-4.456-1.591-9.23-2.864-13.686-3.819-13.686-11.137-26.736-22.592-35.33-11.137-8.593-27.684-14.322-41.048-9.548l21.319-17.188c-6.046-3.182-13.364-3.819-19.728-1.273-5.41 1.91-10.183 5.729-13.046 10.822-.319.955-.955 1.91-1.591 2.865.318-.955.954-1.91 1.591-2.865 2.227-5.411 2.227-11.458.318-16.869-2.228-6.366-7.955-11.458-14.319-13.686 2.864 11.458 3.182 21.325 6.046 32.465-65.55-31.51-148.282-22.917-206.194 21.325-18.138 14.004-35.32 35.011-30.229 57.291 1.591 7.639 6.046 14.641 11.773 20.052-1.591-6.684-1.591-14.323-.318-21.325z" fill="#8e5a61"/><path d="M559.893 342.752c8.274-4.138 19.092-3.501 25.456 2.865 7.955 7.639 7.637 20.37 5.728 31.51-1.273 7.957-3.182 15.914-7 22.917s-9.546 13.367-17.183 16.232c-42.003 16.869-34.366-60.474-7.001-73.524z" class="E"/><path d="M574.849 354.21c-8.91 0-16.865 6.684-20.365 14.96-3.818 8.275-3.818 17.506-3.182 26.418 0 1.909.318 3.819.955 5.729.954 1.591 2.227 3.183 4.136 3.501 3.5.318 6.046-3.501 7.319-6.684 1.591-3.82 2.864-8.276 1.909-12.413s-4.773-7.957-8.91-7.639c0-4.774 2.546-10.185 5.41-14.005s7.955-8.275 12.728-9.867z" class="D"/><path d="M457.751 599.608l1.273-41.695 120.916-35.648 13.683 26.418-135.872 50.925z" fill="#94c7d3"/><path d="M495.299 574.145l27.365-14.004c35.956-18.779 78.595-19.734 115.507-3.501 39.456 17.505 68.094 53.153 76.686 95.804l6.364 31.828c16.228 80.208 19.092 162.644 8.591 244.125l-46.139 357.433h-298.79l68.413-432.867 42.003-278.818z" fill="#6ca8bf"/><path d="M593.623 711.326L474.297 915.347h-16.228l-25.774 72.251 42.639-276.272h118.689z" fill="#41738c"/><path d="M661.717 816.042c-46.139 92.303-187.42 255.588-187.42 255.588l11.456-5.42c47.73-23.23 86.868-60.79 112.324-107.258 36.275-67.158 61.095-108.217 63.64-142.91zM640.08 1024.52c-45.185 31.51-93.869 58.25-144.781 79.89 56.957-.64 112.642-32.78 144.781-79.89z" class="G"/><path d="M252.83 582.421c-24.501 72.251-19.728 154.05 13.046 222.8 10.501 22.279 25.456 44.559 48.685 52.835 4.773 18.46 8.591 37.558 10.501 56.655 1.272 12.413 14.319 20.052 25.774 14.959 2.545-1.273 5.091-2.546 7.637-4.138 5.409-3.183 8.909-9.23 8.909-15.596-.318-21.643-3.5-45.514-6.364-66.521l30.229-13.686c4.455 14.959 7.001 29.6 8.274 41.058 1.591 12.413 15.591 19.416 26.41 12.732 0 0 .318 0 .318-.319 5.41-3.182 8.592-8.912 8.592-15.277-.318-29.601-9.228-54.109-9.228-54.109C477.798 697.64 367.7 563.006 367.7 563.006l-114.87 19.415z" class="B"/><path d="M317.425 625.708c25.456-4.775 50.594-26.1 58.549-51.244-5.092-7.002-8.274-10.822-8.274-10.822l-114.87 18.779c-2.227 7.002-4.455 14.005-6.046 21.007 18.774 17.824 45.185 27.054 70.641 22.28z" class="C"/><g class="B"><path d="M368.337 564.279c.318.318.954 1.273 1.591 1.909-.637-.636-1.273-1.273-1.591-1.909zm6.046 7.957c.636.636.954 1.591 1.591 2.228-.637-.955-1.273-1.592-1.591-2.228z"/><path d="M367.701 563.642l.636.637-.636-.637zm-120.917 39.467c.955-3.182 1.591-6.684 2.546-9.866-.636 3.182-1.591 6.684-2.546 9.866zm123.144-36.602l4.136 5.411-4.136-5.411z"/></g><g class="C"><path d="M425.931 814.451c7.637-16.869 11.773-33.739 13.364-50.926-51.548 25.145-105.006 47.106-159.418 65.249 8.91 13.049 20.365 23.871 35.002 29.282 2.228 8.593 4.137 17.505 6.046 26.099l43.275-20.688-2.864-20.371 30.229-13.686c1.91 6.366 3.501 12.731 4.455 18.779l34.684-16.551c-2.546-10.185-4.773-17.187-4.773-17.187zM249.648 593.243c.955-3.82 2.228-7.321 3.5-10.822-1.272 3.501-2.545 7.002-3.5 10.822z"/><path d="M317.425 625.708c25.456-4.775 50.594-26.1 58.549-51.244-.637-.955-1.273-1.592-1.591-2.228 0 0 0-.318-.319-.318-1.591-2.228-2.863-4.138-4.136-5.411-.637-.955-1.273-1.592-1.591-1.91l-.637-.637-114.87 18.461c-1.273 3.501-2.227 7.32-3.5 10.822-.955 3.182-1.909 6.684-2.546 9.866 18.774 18.143 45.185 27.373 70.641 22.599z"/></g><path d="M286.559 856.783c5.728 9.867 6.682 22.598 1.909 33.101s-14.637 18.461-25.774 21.007c-11.773 2.546-24.183-.955-36.275-1.273-31.501-.637-61.73 24.19-67.458 55.063-5.728 31.192 14.001 64.929 43.912 75.429 11.773 4.14 25.774 4.78 35.956-2.54s14.637-23.24 6.364-32.47c-7.955-8.908-21.956-7.954-32.774-12.728-12.092-5.092-20.365-17.824-20.047-30.873s9.228-25.463 21.319-30.238c12.41-4.774 26.411-1.273 39.775-1.909 19.092-.955 37.866-10.822 49.003-26.418 11.455-15.596 15.592-35.966 10.819-54.745-7.637 1.91-19.41 7.002-26.729 8.594z" class="B"/><path d="M313.288 848.507c-7.319 1.592-19.41 6.684-26.729 8.594 5.728 9.867 6.682 22.28 2.228 32.783 7.636.637 15.591-.636 22.592-3.183 4.136-12.413 5.091-25.781 1.909-38.194z" class="C"/><path d="M349.245 678.543l104.688 174.42 139.69-141.318c25.456-25.781 32.138-65.249 15.91-97.714-23.229-47.743-84.005-63.02-126.962-31.828l-133.326 96.44z" fill="#6ca8bf"/><g class="G"><path d="M474.298 805.539c-18.456-42.014-58.231-103.761-89.096-137.818 18.455 42.014 58.23 103.443 89.096 137.818z"/><path d="M399.839 763.207l36.593 35.011c12.728 12.095 32.138 13.05 45.821 2.228l106.915-84.345-135.235 136.862-54.094-89.756z"/></g><path d="M353.381 685.545l-108.824 90.393c-20.683 17.188-26.092 46.47-13.364 69.705 14 25.463 45.184 35.966 71.913 24.189l126.643-56.973-76.368-127.314z" class="E"/><path d="M353.381 685.545l76.368 127.314-49.321 22.28 12.41-14.004c8.273-9.231 9.864-22.599 4.455-34.057l-48.048-98.032 4.136-3.501z" class="D"/><path d="M347.972 668.04c-4.455-6.684-9.864-13.687-17.819-14.96-5.728-.955-11.137 1.592-16.547 4.138-3.818 1.91-7.955 4.456-10.182 7.957-3.819 6.366.636 10.822 3.5 15.914 3.818 6.684 5.728 14.005 7.955 21.007 1.909 5.729 3.818 11.458 7 16.869 12.092-10.821 26.093-19.097 41.366-24.508-3.5-9.548-9.546-18.142-15.273-26.417z" class="B"/><path d="M363.245 694.457c-15.273 5.411-29.274 13.687-41.366 24.508 1.273 2.228 2.864 4.456 4.773 6.366 5.728 6.366 14.956 10.822 23.229 8.594 7.319-1.91 13.046-8.594 15.274-15.915s.954-15.596-1.591-22.598c-.318-.318-.319-.636-.319-.955z" fill="#99a3b0"/><path d="M316.788 715.782c-8.909 7.639-24.501 7.321-33.411-.318-6.045-5.093-9.546-12.731-10.818-20.37s-.955-15.596-.319-23.553c-11.455 47.424 7.637 75.115 7.637 75.115l36.911-30.874zm4.137-18.142c-2.227-7.002-4.137-14.641-7.955-21.007-2.864-5.092-7.319-9.548-3.5-15.914.318-.636.954-.955 1.273-1.591-2.864 1.591-5.41 3.501-7.001 6.365-3.818 6.366.637 10.822 3.5 15.915 3.819 6.684 5.728 14.004 7.955 21.006 1.91 5.73 3.819 11.459 7.001 16.87l5.727-4.775c-3.182-5.411-5.409-11.14-7-16.869z" class="C"/><path d="M332.38 720.875c-1.909-1.91-3.182-4.138-4.773-6.366l-5.728 4.774c1.273 2.228 2.864 4.456 4.773 6.366 5.728 6.366 14.956 10.822 23.229 8.594 3.818-.955 7.319-3.501 10.182-6.366-1.272.637-2.863 1.273-4.136 1.592-8.592 1.909-17.819-2.228-23.547-8.594zm101.188-105.989c-4.455-6.684-9.864-13.686-17.819-14.959-5.728-.955-11.137 1.591-16.547 4.137-3.818 1.91-7.955 4.456-10.182 7.957-3.819 6.366.636 10.822 3.5 15.915 3.818 6.684 5.728 14.004 7.955 21.006 1.909 5.73 3.818 11.459 7 16.87a123.93 123.93 0 0 1 41.366-24.508c-3.5-9.549-9.546-18.143-15.273-26.418z" class="B"/><path d="M448.842 641.304a123.91 123.91 0 0 0-41.366 24.508c1.272 2.228 2.863 4.456 4.773 6.365 5.727 6.366 14.955 10.822 23.228 8.594 7.319-1.91 13.046-8.594 15.274-15.914s.954-15.596-1.591-22.599c0-.318-.318-.636-.318-.954z" fill="#99a3b0"/><path d="M406.521 644.486c-2.228-7.002-4.137-14.641-7.955-21.006-2.864-5.093-7.319-9.549-3.501-15.915.319-.636.955-.954 1.273-1.591-2.864 1.591-5.409 3.501-7 6.366-3.819 6.365.636 10.821 3.5 15.914 3.818 6.684 5.728 14.005 7.955 21.007 1.909 5.729 3.818 11.458 7 16.869l5.728-4.774c-3.182-5.411-5.091-11.14-7-16.87z" class="C"/><path d="M417.976 667.403c-1.909-1.91-3.182-4.138-4.773-6.366l-5.728 4.775c1.273 2.228 2.864 4.456 4.773 6.365 5.728 6.366 14.956 10.822 23.229 8.594 3.818-.955 7.318-3.501 10.182-6.366-1.273.637-2.864 1.273-4.136 1.592-8.592 2.228-17.501-1.91-23.547-8.594zM314.212 452.502c-29.323.318-67.587 8.27-91.903 22.9l-25.748-52.16c-18.953 138.668 4.291 179.696 53.998 184.785 49.706 5.406 116.578-23.854 133.385-43.255s-2.861-69.652-71.878-149.163l2.146 36.893z" class="B"/><path d="M300.242 517.172c-6.364-7.957-15.274-14.004-25.456-15.277s-21.001 2.546-27.047 10.503c-5.728 7.321-7.001 16.869-7.955 26.099 11.137 1.274 22.91 2.228 33.729-.636 10.501-2.865 21.319-10.822 26.729-20.689z" fill="#fff"/><path d="M267.785 535.951c10.183 0 18.138-8.275 18.138-18.142 0-6.047-3.182-11.777-7.955-14.959-1.273-.319-2.228-.637-3.5-.637-7.637-.955-15.592.955-21.956 5.411-1.909 2.864-3.182 6.366-3.182 10.185.318 9.867 8.591 18.142 18.455 18.142z" class="F"/><path d="M321.243 510.807c0-9.867 2.864-19.097 8.592-24.508 5.409-5.093 13.682-6.684 21.001-3.82 6.364 2.865 11.773 8.912 16.864 14.641-4.454 5.73-10.182 12.095-17.819 15.278-7.637 3.82-19.41 3.501-28.638-1.591z" fill="#fff"/><path d="M352.109 508.26c-5.728 5.093-15.274 3.183-21.002-4.774-3.5-4.774-4.454-10.503-3.182-15.278l1.91-1.909c4.136-4.138 9.864-5.729 15.591-5.093 2.546 1.273 4.773 3.183 6.683 5.729 5.409 7.003 5.409 16.551 0 21.325z" class="F"/><path d="M222.71 476.397c-7.749 4.438-14.794 10.143-19.373 17.75-3.171-25.991-1.409-60.54-1.409-60.54l20.782 42.79zm91.446-24.006c10.908.311 21.453 2.487 21.453 2.487-9.454-16.166-22.907-31.088-22.907-31.088l1.454 28.601z" fill="#e47790"/><path d="M206.373 580.193l32.774-17.188c12.092-6.047 24.184-11.458 33.411-15.914-9.864 2.865-22.592 7.639-34.683 13.687-11.774 6.047-23.229 13.049-31.502 19.415zm3.5 16.869c8.592-6.684 19.729-15.596 31.502-23.871 11.455-8.276 23.547-15.915 32.775-21.962-9.865 4.456-22.593 11.458-34.366 19.734-11.455 8.593-22.274 18.142-29.911 26.099zm21.956 1.591c5.727-5.729 13.364-13.368 21.319-20.688s16.228-14.323 22.274-19.734c-7 4.456-15.592 10.822-23.547 18.461-7.955 7.002-15.273 15.277-20.046 21.961zm179.147-87.846c-8.274-.319-19.411.636-30.23 3.501-10.818 2.546-21.001 6.684-28.638 10.822 7.955-2.865 18.456-6.366 28.957-8.912 10.819-2.865 21.637-4.456 29.911-5.411zm13.364 11.776c-9.864-1.273-22.592-1.591-35.32-.318s-25.456 4.138-34.684 7.639c9.546-1.91 22.274-4.138 35.002-5.411 12.41-1.591 25.138-1.91 35.002-1.91zm-1.591 10.822c-8.91-1.91-20.365-2.865-32.138-2.865s-23.547 1.274-32.139 2.865c8.91-.318 20.684-.955 32.139-.955l32.138.955z" class="F"/><path d="M328.561 521.947c-10.182-.637-20.683 2.864-28.638 9.548-1.909 1.592-1.272 4.456.637 5.411 4.773 2.228 10.182 3.501 15.273 3.82 3.182.318 6.364-1.274 8.274-3.82 2.545-3.183 5.091-7.002 7-10.503 1.273-1.592-.318-4.138-2.546-4.456z" class="C"/><path d="M359.664 538.915c-.318 4.361-2.542 8.722-6.037 11.837s-8.578 4.673-13.661 4.05-9.85-2.804-13.027-6.542c-3.495-3.427-5.401-7.788-6.672-11.837 0 .934-1.271.934-1.906.311 1.906 4.05 3.177 9.034 2.224 14.018-.636 4.984-3.495 9.657-7.626 12.772s-9.531 4.673-14.615 4.361-9.849-2.492-13.344-5.295c2.224 3.738 6.99 7.164 12.709 8.41s12.709-.311 17.792-4.049 8.261-9.969 8.261-15.887v-1.246c0 .311.318.623.318.623 3.177 4.672 8.896 8.099 14.932 8.41 6.037.623 12.709-1.557 16.204-5.918 4.448-4.361 5.401-9.969 4.448-14.018z" class="F"/></svg>