<svg xmlns="http://www.w3.org/2000/svg" width="250" height="406" viewBox="0 0 250 405" xmlns:v="https://vecta.io/nano"><style><![CDATA[.W{fill:rgb(47.45098%,48.627451%,60%)}.X{fill:rgb(28.627451%,32.54902%,45.882353%)}.Y{fill:rgb(92.156863%,64.705882%,55.686275%)}.Z{fill:rgb(100%,100%,100%)}.a{fill:rgb(94.901961%,78.823529%,67.843137%)}.b{fill:rgb(12.941176%,14.509804%,36.078431%)}.c{fill:rgb(27.45098%,50.196078%,59.215686%)}.d{fill:rgb(41.568627%,21.176471%,28.627451%)}.e{fill:rgb(27.843137%,16.078431%,28.235294%)}.f{fill:rgb(42.352941%,65.882353%,74.901961%)}.g{fill:rgb(60%,63.921569%,69.019608%)}]]></style><path d="M250 404.715H0V113.367C0 50.754 50.875 0 113.637 0h22.727C199.125 0 250 50.754 250 113.367zm0 0" fill="rgb(7.058824%,7.058824%,7.058824%)"/><path d="M117.477 257.801c-7.5 5.141-15.187 10.281-23.953 12.629-4.52 1.172-9.582 1.531-13.469-.992-4.613-2.977-6.059-9.383-4.883-14.707s4.43-10.012 7.594-14.523l30.371-14.16zm0 0" class="Y"/><path d="M108.168 231.277C90.719 281.793 79.512 362.8 79.512 362.8l29.922 1.531 21.512-136.121zm0 0" class="c"/><path d="M118.652 221.086C105.453 267.723 91.535 337.18 91.535 337.18l1.355 6.949-1.355 7.848h29.195l10.125-123.586zm0 0" class="Z"/><path d="M118.652 221.086c-5.152 18.129-10.395 39.781-14.914 59.355 5.063-1.895 9.941-4.238 14.555-7.035l-6.691 57.281c-.27 1.895-1.898 3.426-3.797 3.426-1.266 0-2.531.633-3.254 1.715l-1.535 2.438c-.453.629-1.086 1.172-1.809 1.441l-5.875 2.254h9.672c2.531 0 4.789 1.805 5.242 4.332l.992 5.5h9.586l10.121-123.582zm0 0" fill="rgb(89.411765%,89.411765%,87.843137%)"/><path d="M194.504 403.207c-5.934 1.07-12.047 1.629-18.289 1.629h-88.57l6.328-52.949v.09h95.734l2.438 18.941c.816 6.043 1.359 12 1.629 18.039zm0 0" fill-rule="evenodd" fill="rgb(27.058824%,30.980392%,41.960784%)"/><path d="M192.055 369.023l-2.258-17.137h-78.559l-6.867 21.918zm0 0" fill="rgb(25.882353%,17.254902%,30.980392%)"/><path d="M131.039 145.492l4.066 11.277 27.48-8.211-10.578-30.578zm0 0" class="a"/><path d="M152.008 117.98l-20.969 27.512 2.801 7.848c15.098-4.238 18.441-30.309 18.168-35.359zm0 0" class="e"/><path d="M83.309 80.363c-.453 4.871-.453 9.922.902 14.613 1.355 4.781 4.066 9.199 8.047 11.996-.543-8.75-.09-17.859 1.266-26.52-2.984.992-7.234.633-10.215-.09zm0 0" class="d"/><path d="M154.09 88.844c-2.441-9.383-8.137-18.043-16.363-23.273-8.227-5.145-18.984-6.586-27.934-2.797-9.492 4.059-16.18 13.348-18.531 23.453-2.441 10.012-.992 20.656 1.988 30.578 2.895 9.473 7.684 18.766 15.461 24.898s19.164 8.48 27.93 3.699c4.793-2.617 8.41-7.035 10.848-11.906 6.691-12.992 10.305-30.402 6.602-44.652zm0 0" class="a"/><path d="M141.07 56.277c-.18.27-.27.543-.449.813.27-.18.359-.453.449-.812zm0 0" class="Z"/><path d="M135.559 99.668c-1.719-2.977-4.973-4.961-8.316-5.234-3.437-.18-6.871 1.445-8.949 4.152 5.332-.633 11.93.09 17.266 1.082zm-33.539.539c-.543-.719-1.176-1.531-1.898-2.164s-1.629-1.082-2.621-1.082c-1.629 0-3.074 1.262-3.707 2.797s-.723 3.156-.723 4.781c2.531-1.895 5.965-3.699 8.949-4.332zm0 0" class="d"/><path d="M131.762 108.867c.18-.902-.184-2.164-.996-3.156s-2.078-1.715-3.523-1.805-2.805.543-3.707 1.445-1.355 2.074-1.266 3.066c1.176-1.535 3.074-2.527 4.879-2.437s3.617 1.266 4.613 2.887zm-28.656 2.527c-.273-.902-.996-1.895-1.809-2.617s-1.898-1.082-2.711-.723c-.816.273-1.359 1.176-1.539 2.258s.09 2.254.543 3.066c0-1.625.723-3.066 1.719-3.43 1.082-.449 2.621.18 3.797 1.445zm0 0" class="e"/><path d="M119.016 120.055l-8.68.813c.906 1.621 2.441 2.887 4.25 2.703 1.898-.09 3.707-1.711 4.43-3.516zm0 0" class="Y"/><path d="M136.191 123.48c-7.504 3.969-15.641 6.855-23.957 8.48 3.344 2.797 7.324 5.414 11.66 5.594 3.527.18 7.051-1.355 9.402-3.879 2.352-2.617 3.434-6.766 2.895-10.195zm0 0" class="Z"/><path d="M135.738 137.375c-2.531 1.711-5.242 3.066-8.227 3.969 1.086.359 2.352.992 3.527.992s2.348-.453 3.254-1.176c.992-.898 1.625-2.613 1.445-3.785zm1.535-17.23c4.645 0 8.41-1.695 8.41-3.789s-3.766-3.789-8.41-3.789-8.406 1.695-8.406 3.789 3.766 3.789 8.406 3.789zm-32.359-2.437c.539 1.355-.633 3.16-2.625 4.059-2.078.902-4.156.543-4.789-.719-.633-1.445.543-3.25 2.621-4.148 1.988-.902 4.16-.543 4.793.809zm24.676-32.113c2.984 9.832 12.113 13.621 17.539 13.531l8.043-4.691a55.85 55.85 0 0 0-1.082-5.59c-1.086-4.242-2.895-8.391-5.242-12.09a615.75 615.75 0 0 0-57.223 8.117c-.09.453-.273.902-.363 1.355a48.19 48.19 0 0 0-1.086 7.215 90.82 90.82 0 0 0 39.414-7.848zm0 0" class="Y"/><path d="M154.27 113.109c-4.52-3.07-7.32-8.48-7.141-13.984-7.324-2.074-13.922-8.117-15.551-15.516-12.473 4.422-25.762 6.043-39.051 6.227-4.25.09-8.586-.09-12.473-1.715-3.98-1.535-7.414-4.781-8.316-8.84-1.449-6.316 3.434-12.359 8.586-16.238C96.777 50.594 120.281 48.16 138.902 57c-.812-3.25-.906-6.043-1.719-9.203 1.809.633 3.438 1.984 4.07 3.879.633 1.805.449 3.969-.543 5.594a6.89 6.89 0 0 1 4.066-3.879c1.809-.723 3.887-.543 5.605.359l-6.059 4.871c3.797-1.352 8.5.184 11.664 2.707 3.164 2.438 5.242 6.137 6.418 10.016s1.355 7.938 1.355 11.996c0 4.613-.273 9.219-.812 13.801-.363 2.977-.816 5.953-1.898 8.75s-2.984 5.324-5.605 6.855zm0 0" class="d"/><path d="M74.898 78.738c.906-4.691 3.891-8.84 7.594-11.906s8.137-5.051 12.656-6.766c7.234-2.707 14.828-4.602 22.512-4.512s15.547 2.258 21.602 7.039c6.238-2.437 13.832 0 18.625 4.688 2.258 2.258 3.977 4.871 5.332 7.758-.18-1.262-.453-2.613-.812-3.879-1.086-3.879-3.164-7.574-6.418-10.012-3.164-2.434-7.867-4.059-11.664-2.707l6.059-4.871c-1.719-.902-3.797-1.082-5.605-.359-1.535.539-2.891 1.625-3.707 3.066-.09.27-.27.543-.449.813.09-.27.27-.543.449-.812.633-1.535.633-3.246.09-4.781-.633-1.805-2.258-3.246-4.066-3.879.813 3.246.902 6.043 1.719 9.203-18.621-8.934-42.125-6.496-58.578 6.043-5.152 3.969-10.035 9.922-8.59 16.238.453 2.164 1.719 4.148 3.348 5.68-.453-1.895-.453-4.059-.094-6.043zm0 0" fill="rgb(55.686275%,35.294118%,38.039216%)"/><path d="M159.059 97.141c2.352-1.172 5.426-.992 7.234.813 2.258 2.164 2.168 5.773 1.625 8.93-.359 2.254-.902 4.512-1.988 6.496s-2.711 3.789-4.879 4.602c-11.934 4.781-9.766-17.141-1.992-20.84zm0 0" class="a"/><path d="M163.309 100.387c-2.531 0-4.789 1.895-5.785 4.242-1.086 2.344-1.086 4.961-.902 7.488a5.11 5.11 0 0 0 .27 1.621c.273.453.633.902 1.176.992.992.09 1.719-.992 2.078-1.895.453-1.082.816-2.344.543-3.516s-1.355-2.258-2.531-2.168c0-1.352.723-2.887 1.539-3.969s2.258-2.344 3.613-2.797zm0 0" class="Y"/><path d="M130.043 169.938l.363-11.816 34.348-10.102 3.891 7.484zm0 0" fill="rgb(58.039216%,78.039216%,82.745098%)"/><path d="M140.711 162.723l7.773-3.969c10.215-5.324 22.328-5.594 32.813-.992 11.211 4.961 19.348 15.063 21.789 27.152l1.805 9.02c4.613 22.73 5.426 46.094 2.441 69.188l-13.105 101.301H109.34l19.438-122.68zm0 0" class="f"/><path d="M168.645 201.602l-33.902 57.82h-4.609l-7.32 20.477 12.113-78.297zm0 0" fill="rgb(25.490196%,45.098039%,54.901961%)"/><path d="M187.988 231.277c-13.109 26.16-53.246 72.438-53.246 72.438l3.254-1.535c13.563-6.582 24.68-17.23 31.914-30.398 10.305-19.035 17.355-30.672 18.078-40.504zm-6.148 59.086c-12.836 8.93-26.668 16.512-41.129 22.645 16.18-.184 32-9.293 41.129-22.645zm0 0" class="c"/><path d="M71.828 165.066c-6.961 20.477-5.605 43.66 3.703 63.145 2.984 6.316 7.234 12.629 13.832 14.977 1.355 5.23 2.441 10.645 2.984 16.055a5.23 5.23 0 0 0 7.32 4.238c.723-.359 1.449-.719 2.172-1.172a5.19 5.19 0 0 0 2.531-4.418c-.09-6.137-.996-12.902-1.809-18.855l8.586-3.879c1.266 4.242 1.988 8.391 2.352 11.637.453 3.52 4.43 5.504 7.504 3.609 0 0 .09 0 .09-.09 1.535-.902 2.441-2.527 2.441-4.332-.09-8.387-2.621-15.332-2.621-15.332 14.824-32.926-16.453-71.086-16.453-71.086zm0 0" class="W"/><path d="M90.176 177.336c7.234-1.355 14.375-7.398 16.637-14.523-1.449-1.984-2.352-3.066-2.352-3.066l-32.633 5.32c-.633 1.984-1.266 3.969-1.719 5.953 5.332 5.051 12.836 7.668 20.066 6.316zm0 0" class="X"/><g class="W"><path d="M104.641 159.926c.09.09.273.359.453.539-.18-.18-.363-.359-.453-.539zm1.719 2.254c.18.18.27.453.453.633-.184-.27-.363-.453-.453-.633zm0 0"/><path d="M104.461 159.746l.18.18zM70.109 170.93l.723-2.797c-.18.902-.453 1.895-.723 2.797zm34.984-10.375l1.176 1.535zm0 0"/></g><path d="M121.004 230.828c2.168-4.781 3.344-9.562 3.797-14.434-14.645 7.125-29.832 13.352-45.289 18.492 2.531 3.699 5.785 6.766 9.941 8.301.633 2.434 1.176 4.961 1.719 7.395l12.293-5.863-.812-5.773 8.586-3.879c.543 1.805.996 3.609 1.266 5.324l9.855-4.691c-.723-2.887-1.355-4.871-1.355-4.871zm-50.082-62.695c.273-1.082.633-2.074.996-3.066-.363.992-.723 1.984-.996 3.066zm19.254 9.203c7.234-1.355 14.375-7.398 16.637-14.523-.184-.27-.363-.453-.453-.633 0 0 0-.09-.09-.09-.453-.633-.816-1.172-1.176-1.535-.18-.27-.363-.449-.453-.539l-.18-.18-32.633 5.23c-.363.992-.633 2.074-.996 3.066-.27.902-.543 1.895-.723 2.797 5.332 5.141 12.836 7.758 20.066 6.406zm0 0" class="X"/><path d="M81.41 242.824c1.625 2.797 1.898 6.406.539 9.383s-4.156 5.23-7.32 5.953c-3.344.723-6.871-.27-10.305-.359-8.949-.184-17.539 6.855-19.164 15.605-1.629 8.84 3.977 18.402 12.473 21.375 3.348 1.176 7.324 1.355 10.215-.719s4.16-6.586 1.809-9.203c-2.258-2.523-6.238-2.254-9.309-3.605-3.437-1.445-5.785-5.051-5.695-8.75s2.621-7.219 6.055-8.57c3.527-1.352 7.504-.359 11.301-.543 5.422-.27 10.758-3.066 13.922-7.484 3.254-4.422 4.43-10.195 3.074-15.516-2.172.539-5.516 1.984-7.594 2.434zm0 0" class="W"/><path d="M89.004 240.48c-2.082.449-5.516 1.895-7.594 2.434 1.625 2.797 1.898 6.316.633 9.293 2.168.18 4.43-.18 6.418-.902 1.176-3.52 1.445-7.309.543-10.824zm0 0" class="X"/><path d="M99.219 192.309l29.738 49.434 39.688-40.051c7.23-7.309 9.129-18.492 4.52-27.695-6.602-13.531-23.867-17.859-36.07-9.02zm0 0" class="f"/><g class="c"><path d="M134.742 228.301c-5.242-11.906-16.543-29.406-25.309-39.059 5.242 11.906 16.543 29.316 25.309 39.059zm0 0"/><path d="M113.59 216.305l10.398 9.922c3.613 3.43 9.129 3.699 13.016.633l30.375-23.906-38.422 38.789zm0 0"/></g><path d="M100.391 194.293l-30.914 25.621c-5.875 4.871-7.414 13.168-3.797 19.754 3.977 7.215 12.836 10.191 20.43 6.855l35.977-16.148zm0 0" class="a"/><path d="M100.391 194.293l21.695 36.082-14.012 6.316 3.527-3.969c2.352-2.617 2.801-6.406 1.266-9.652l-13.648-27.785zm0 0" class="Y"/><path d="M98.855 189.332c-1.266-1.895-2.801-3.879-5.062-4.238-1.625-.273-3.164.449-4.699 1.172-1.086.543-2.262 1.262-2.895 2.254-1.086 1.805.18 3.066.996 4.512 1.082 1.895 1.625 3.969 2.258 5.953.543 1.625 1.086 3.246 1.988 4.781a35.23 35.23 0 0 1 11.754-6.945c-.996-2.707-2.711-5.141-4.34-7.488zm0 0" class="W"/><path d="M103.195 196.82a35.23 35.23 0 0 0-11.754 6.945c.363.633.816 1.262 1.359 1.805 1.625 1.805 4.246 3.066 6.598 2.434 2.078-.539 3.707-2.434 4.34-4.508s.27-4.422-.453-6.406c-.09-.09-.09-.18-.09-.27zm0 0" class="g"/><path d="M89.996 202.863c-2.531 2.164-6.961 2.074-9.492-.09-1.715-1.445-2.711-3.609-3.074-5.773s-.27-4.422-.09-6.676c-3.254 13.441 2.172 21.289 2.172 21.289zm1.176-5.141c-.633-1.984-1.176-4.152-2.262-5.953-.812-1.445-2.078-2.707-.992-4.512.09-.18.27-.27.359-.449-.812.449-1.535.992-1.988 1.801-1.082 1.805.184 3.07.996 4.512 1.086 1.895 1.625 3.969 2.258 5.953.543 1.625 1.086 3.25 1.992 4.781l1.625-1.352c-.902-1.535-1.535-3.16-1.988-4.781zm0 0" class="X"/><path d="M94.426 204.309c-.543-.543-.902-1.176-1.355-1.805l-1.629 1.352c.363.633.816 1.262 1.359 1.805 1.625 1.805 4.246 3.066 6.598 2.434 1.086-.27 2.078-.992 2.891-1.801-.359.18-.812.359-1.172.449-2.441.543-5.062-.633-6.691-2.434zm28.746-30.039c-1.266-1.895-2.801-3.879-5.062-4.242-1.625-.27-3.164.453-4.699 1.172-1.086.543-2.262 1.266-2.895 2.258-1.082 1.805.184 3.066.996 4.508 1.086 1.895 1.625 3.969 2.258 5.953.543 1.625 1.086 3.25 1.992 4.781a35.21 35.21 0 0 1 11.75-6.945c-.996-2.707-2.711-5.141-4.34-7.484zm0 0" class="W"/><path d="M127.512 181.754a35.16 35.16 0 0 0-11.75 6.945 8.41 8.41 0 0 0 1.355 1.805c1.625 1.805 4.246 3.066 6.598 2.438 2.078-.543 3.707-2.437 4.34-4.512s.27-4.418-.453-6.402c0-.094-.09-.184-.09-.273zm0 0" class="g"/><path d="M115.488 182.656c-.633-1.984-1.176-4.148-2.258-5.953-.816-1.441-2.082-2.707-.996-4.512.09-.18.27-.27.363-.449-.816.449-1.539.992-1.992 1.805-1.082 1.805.184 3.066.996 4.508 1.086 1.895 1.629 3.973 2.262 5.957.539 1.621 1.082 3.246 1.988 4.781l1.625-1.355c-.902-1.531-1.445-3.156-1.988-4.781zm0 0" class="X"/><path d="M118.742 189.152c-.543-.543-.902-1.172-1.355-1.805l-1.625 1.352a8.41 8.41 0 0 0 1.355 1.805c1.625 1.805 4.246 3.066 6.598 2.438 1.086-.27 2.078-.992 2.895-1.805-.363.18-.816.359-1.176.449-2.441.633-4.973-.539-6.691-2.434zm-29.477-60.906c-8.332.09-19.203 2.344-26.109 6.488l-7.316-14.781c-5.383 39.301 1.219 50.93 15.34 52.371 14.121 1.531 33.121-6.762 37.895-12.258s-.812-19.742-20.418-42.277zm0 0" class="W"/><path d="M85.297 146.574c-1.809-2.254-4.34-3.969-7.234-4.328s-5.965.719-7.684 2.977c-1.625 2.074-1.988 4.781-2.258 7.395 3.164.363 6.508.633 9.582-.18 2.984-.812 6.055-3.066 7.594-5.863zm0 0" class="Z"/><path d="M76.074 151.898c2.895 0 5.152-2.348 5.152-5.145 0-1.715-.902-3.336-2.258-4.238-.363-.09-.633-.18-.996-.18a9.01 9.01 0 0 0-6.234 1.531c-.543.813-.906 1.805-.906 2.887.09 2.797 2.441 5.145 5.242 5.145zm0 0" class="b"/><path d="M91.262 144.77c0-2.797.813-5.41 2.441-6.945 1.535-1.441 3.887-1.895 5.965-1.082 1.809.813 3.348 2.523 4.793 4.148-1.266 1.625-2.895 3.43-5.062 4.332-2.172 1.082-5.516.992-8.137-.453zm0 0" class="Z"/><path d="M100.031 144.047c-1.629 1.445-4.34.902-5.965-1.352-.996-1.352-1.266-2.977-.906-4.328l.543-.543c1.176-1.172 2.801-1.625 4.43-1.441.723.359 1.355.898 1.898 1.621 1.535 1.984 1.535 4.691 0 6.043zm0 0" class="b"/><path d="M63.27 135.02c-2.199 1.258-4.203 2.875-5.504 5.027-.898-7.363-.398-17.156-.398-17.156zm25.98-6.805c3.098.086 6.094.703 6.094.703-2.687-4.582-6.508-8.809-6.508-8.809zm0 0" fill="rgb(89.411765%,46.666667%,56.470588%)"/><path d="M58.629 164.434l9.313-4.871c3.434-1.711 6.867-3.246 9.488-4.508a61.38 61.38 0 0 0-9.852 3.879c-3.344 1.715-6.598 3.699-8.949 5.5zm.992 4.781c2.441-1.895 5.605-4.418 8.953-6.766 3.254-2.344 6.688-4.508 9.309-6.223a62.61 62.61 0 0 0-9.762 5.594c-3.254 2.434-6.328 5.141-8.5 7.395zm6.238.453c1.629-1.625 3.797-3.789 6.059-5.863s4.609-4.059 6.328-5.594a44.21 44.21 0 0 0-6.691 5.23c-2.258 1.984-4.34 4.332-5.695 6.227zm50.895-24.898c-2.352-.09-5.516.18-8.586.992a34.14 34.14 0 0 0-8.137 3.066c2.258-.809 5.242-1.801 8.227-2.523 3.074-.812 6.145-1.266 8.496-1.535zm3.797 3.34c-2.801-.363-6.418-.453-10.035-.09s-7.23 1.172-9.852 2.164c2.711-.543 6.328-1.172 9.941-1.535 3.527-.449 7.145-.539 9.945-.539zm-.453 3.066c-2.531-.543-5.785-.812-9.129-.812s-6.687.359-9.129.813c2.531-.09 5.875-.27 9.129-.27zm0 0" class="b"/><path d="M93.34 147.926c-2.891-.18-5.875.813-8.133 2.707-.543.453-.363 1.266.18 1.535 1.355.629 2.891.992 4.34 1.082.902.09 1.809-.359 2.348-1.082a21.15 21.15 0 0 0 1.992-2.977c.359-.453-.094-1.172-.727-1.266zm0 0" class="X"/><path d="M102.176 152.738c-.09 1.234-.719 2.469-1.715 3.352s-2.437 1.324-3.879 1.148-2.801-.793-3.703-1.852c-.992-.973-1.531-2.207-1.895-3.355 0 .266-.359.266-.539.086.539 1.148.902 2.563.629 3.973-.18 1.414-.992 2.738-2.164 3.621s-2.711 1.324-4.152 1.234-2.801-.703-3.793-1.5c.633 1.059 1.988 2.031 3.613 2.383s3.609-.086 5.055-1.145 2.344-2.828 2.344-4.504v-.352c0 .086.09.176.09.176a5.64 5.64 0 0 0 4.242 2.383c1.715.176 3.613-.441 4.605-1.676 1.262-1.238 1.535-2.828 1.262-3.973zm0 0" class="b"/></svg>